<svg width="327" height="139" viewBox="0 0 327 139" fill="none" xmlns="http://www.w3.org/2000/svg">
<rect width="327" height="139" rx="12" fill="#1D272F"/>
<g clip-path="url(#clip0_37_14218)">
<path d="M23 29.5C18.8675 29.5 15.5 32.8675 15.5 37C15.5 41.1325 18.8675 44.5 23 44.5C27.1325 44.5 30.5 41.1325 30.5 37C30.5 32.8675 27.1325 29.5 23 29.5ZM22.4375 34C22.4375 33.6925 22.6925 33.4375 23 33.4375C23.3075 33.4375 23.5625 33.6925 23.5625 34V37.75C23.5625 38.0575 23.3075 38.3125 23 38.3125C22.6925 38.3125 22.4375 38.0575 22.4375 37.75V34ZM23.69 40.285C23.6525 40.3825 23.6 40.4575 23.5325 40.5325C23.4575 40.6 23.375 40.6525 23.285 40.69C23.195 40.7275 23.0975 40.75 23 40.75C22.9025 40.75 22.805 40.7275 22.715 40.69C22.625 40.6525 22.5425 40.6 22.4675 40.5325C22.4 40.4575 22.3475 40.3825 22.31 40.285C22.2725 40.195 22.25 40.0975 22.25 40C22.25 39.9025 22.2725 39.805 22.31 39.715C22.3475 39.625 22.4 39.5425 22.4675 39.4675C22.5425 39.4 22.625 39.3475 22.715 39.31C22.895 39.235 23.105 39.235 23.285 39.31C23.375 39.3475 23.4575 39.4 23.5325 39.4675C23.6 39.5425 23.6525 39.625 23.69 39.715C23.7275 39.805 23.75 39.9025 23.75 40C23.75 40.0975 23.7275 40.195 23.69 40.285Z" fill="white"/>
</g>
<path d="M52.666 25.22C52.666 25.7613 52.596 26.2747 52.456 26.76C52.3253 27.2453 52.1107 27.6747 51.812 28.048C51.5227 28.412 51.14 28.706 50.664 28.93C50.188 29.1447 49.6093 29.252 48.928 29.252C48.2467 29.252 47.668 29.1447 47.192 28.93C46.716 28.706 46.3287 28.412 46.03 28.048C45.7407 27.6747 45.526 27.2453 45.386 26.76C45.2553 26.2747 45.19 25.7613 45.19 25.22V19.088H46.366V25.052C46.366 25.4533 46.408 25.8407 46.492 26.214C46.576 26.5873 46.716 26.9187 46.912 27.208C47.108 27.4973 47.3693 27.7307 47.696 27.908C48.0227 28.076 48.4333 28.16 48.928 28.16C49.4227 28.16 49.8333 28.076 50.16 27.908C50.4867 27.7307 50.748 27.4973 50.944 27.208C51.14 26.9187 51.28 26.5873 51.364 26.214C51.448 25.8407 51.49 25.4533 51.49 25.052V19.088H52.666V25.22ZM54.8374 22.448H55.9294V23.4H55.9574C56.2561 23.0453 56.6014 22.77 56.9934 22.574C57.3948 22.378 57.8334 22.28 58.3094 22.28C58.8228 22.28 59.2894 22.3687 59.7094 22.546C60.1388 22.714 60.5028 22.952 60.8014 23.26C61.1001 23.568 61.3334 23.932 61.5014 24.352C61.6694 24.772 61.7534 25.2293 61.7534 25.724C61.7534 26.2187 61.6694 26.676 61.5014 27.096C61.3334 27.516 61.1001 27.88 60.8014 28.188C60.5121 28.496 60.1668 28.7387 59.7654 28.916C59.3641 29.084 58.9348 29.168 58.4774 29.168C57.8894 29.168 57.3714 29.042 56.9234 28.79C56.4848 28.5287 56.1628 28.2113 55.9574 27.838H55.9294V32.192H54.8374V22.448ZM55.9294 25.724C55.9294 26.0693 55.9808 26.3913 56.0834 26.69C56.1954 26.9793 56.3541 27.236 56.5594 27.46C56.7648 27.6747 57.0074 27.8473 57.2874 27.978C57.5768 28.0993 57.8988 28.16 58.2534 28.16C58.6081 28.16 58.9254 28.0993 59.2054 27.978C59.4948 27.8473 59.7421 27.6747 59.9474 27.46C60.1528 27.236 60.3068 26.9793 60.4094 26.69C60.5214 26.3913 60.5774 26.0693 60.5774 25.724C60.5774 25.3787 60.5214 25.0613 60.4094 24.772C60.3068 24.4733 60.1528 24.2167 59.9474 24.002C59.7421 23.778 59.4948 23.6053 59.2054 23.484C58.9254 23.3533 58.6081 23.288 58.2534 23.288C57.8988 23.288 57.5768 23.3533 57.2874 23.484C57.0074 23.6053 56.7648 23.778 56.5594 24.002C56.3541 24.2167 56.1954 24.4733 56.0834 24.772C55.9808 25.0613 55.9294 25.3787 55.9294 25.724ZM63.55 18.416H64.642V29H63.55V18.416ZM66.4373 25.724C66.4373 25.2107 66.526 24.744 66.7033 24.324C66.8806 23.904 67.1233 23.5447 67.4313 23.246C67.7393 22.938 68.108 22.7 68.5373 22.532C68.9666 22.364 69.4333 22.28 69.9373 22.28C70.4413 22.28 70.908 22.364 71.3373 22.532C71.7666 22.7 72.1353 22.938 72.4433 23.246C72.7513 23.5447 72.994 23.904 73.1713 24.324C73.3486 24.744 73.4373 25.2107 73.4373 25.724C73.4373 26.2373 73.3486 26.704 73.1713 27.124C72.994 27.544 72.7513 27.908 72.4433 28.216C72.1353 28.5147 71.7666 28.748 71.3373 28.916C70.908 29.084 70.4413 29.168 69.9373 29.168C69.4333 29.168 68.9666 29.084 68.5373 28.916C68.108 28.748 67.7393 28.5147 67.4313 28.216C67.1233 27.908 66.8806 27.544 66.7033 27.124C66.526 26.704 66.4373 26.2373 66.4373 25.724ZM67.6133 25.724C67.6133 26.0693 67.6646 26.3913 67.7673 26.69C67.8793 26.9793 68.038 27.236 68.2433 27.46C68.4486 27.6747 68.6913 27.8473 68.9713 27.978C69.2606 28.0993 69.5826 28.16 69.9373 28.16C70.292 28.16 70.6093 28.0993 70.8893 27.978C71.1786 27.8473 71.426 27.6747 71.6313 27.46C71.8366 27.236 71.9906 26.9793 72.0933 26.69C72.2053 26.3913 72.2613 26.0693 72.2613 25.724C72.2613 25.3787 72.2053 25.0613 72.0933 24.772C71.9906 24.4733 71.8366 24.2167 71.6313 24.002C71.426 23.778 71.1786 23.6053 70.8893 23.484C70.6093 23.3533 70.292 23.288 69.9373 23.288C69.5826 23.288 69.2606 23.3533 68.9713 23.484C68.6913 23.6053 68.4486 23.778 68.2433 24.002C68.038 24.2167 67.8793 24.4733 67.7673 24.772C67.6646 25.0613 67.6133 25.3787 67.6133 25.724ZM75.0438 23.288C75.3798 22.9427 75.7765 22.6907 76.2338 22.532C76.7005 22.364 77.1718 22.28 77.6478 22.28C78.6185 22.28 79.3185 22.5087 79.7478 22.966C80.1771 23.4233 80.3918 24.1187 80.3918 25.052V27.866C80.3918 28.0527 80.4011 28.2487 80.4198 28.454C80.4385 28.65 80.4618 28.832 80.4898 29H79.4398C79.4025 28.8507 79.3791 28.6873 79.3698 28.51C79.3698 28.3233 79.3698 28.16 79.3698 28.02H79.3418C79.1271 28.356 78.8378 28.6313 78.4738 28.846C78.1191 29.0607 77.6898 29.168 77.1858 29.168C76.8498 29.168 76.5325 29.126 76.2338 29.042C75.9445 28.958 75.6878 28.8367 75.4638 28.678C75.2491 28.51 75.0765 28.3047 74.9458 28.062C74.8151 27.8193 74.7498 27.5393 74.7498 27.222C74.7498 26.6807 74.8898 26.256 75.1698 25.948C75.4498 25.64 75.7951 25.4113 76.2058 25.262C76.6258 25.1127 77.0738 25.0193 77.5498 24.982C78.0351 24.9447 78.4785 24.926 78.8798 24.926H79.2998V24.73C79.2998 24.254 79.1551 23.8947 78.8658 23.652C78.5858 23.4093 78.1891 23.288 77.6758 23.288C77.3211 23.288 76.9711 23.3487 76.6258 23.47C76.2898 23.582 75.9911 23.7593 75.7298 24.002L75.0438 23.288ZM78.2078 25.85C77.5078 25.85 76.9525 25.948 76.5418 26.144C76.1311 26.34 75.9258 26.662 75.9258 27.11C75.9258 27.5207 76.0611 27.8147 76.3318 27.992C76.6118 28.16 76.9571 28.244 77.3678 28.244C77.6851 28.244 77.9605 28.1927 78.1938 28.09C78.4365 27.978 78.6371 27.8333 78.7958 27.656C78.9545 27.4787 79.0758 27.2733 79.1598 27.04C79.2438 26.7973 79.2905 26.5407 79.2998 26.27V25.85H78.2078ZM87.8336 27.838H87.8056C87.6002 28.2113 87.2736 28.5287 86.8256 28.79C86.3869 29.042 85.8736 29.168 85.2856 29.168C84.8282 29.168 84.3989 29.084 83.9976 28.916C83.5962 28.7387 83.2462 28.496 82.9476 28.188C82.6582 27.88 82.4296 27.516 82.2616 27.096C82.0936 26.676 82.0096 26.2187 82.0096 25.724C82.0096 25.2293 82.0936 24.772 82.2616 24.352C82.4296 23.932 82.6629 23.568 82.9616 23.26C83.2602 22.952 83.6196 22.714 84.0396 22.546C84.4689 22.3687 84.9402 22.28 85.4536 22.28C85.9296 22.28 86.3636 22.378 86.7556 22.574C87.1569 22.77 87.5069 23.0453 87.8056 23.4H87.8336V18.416H88.9256V29H87.8336V27.838ZM87.8336 25.724C87.8336 25.3787 87.7776 25.0613 87.6656 24.772C87.5629 24.4733 87.4089 24.2167 87.2036 24.002C86.9982 23.778 86.7509 23.6053 86.4616 23.484C86.1816 23.3533 85.8642 23.288 85.5096 23.288C85.1549 23.288 84.8329 23.3533 84.5436 23.484C84.2636 23.6053 84.0209 23.778 83.8156 24.002C83.6102 24.2167 83.4516 24.4733 83.3396 24.772C83.2369 25.0613 83.1856 25.3787 83.1856 25.724C83.1856 26.0693 83.2369 26.3913 83.3396 26.69C83.4516 26.9793 83.6102 27.236 83.8156 27.46C84.0209 27.6747 84.2636 27.8473 84.5436 27.978C84.8329 28.0993 85.1549 28.16 85.5096 28.16C85.8642 28.16 86.1816 28.0993 86.4616 27.978C86.7509 27.8473 86.9982 27.6747 87.2036 27.46C87.4089 27.236 87.5629 26.9793 87.6656 26.69C87.7776 26.3913 87.8336 26.0693 87.8336 25.724ZM94.7586 23.288C95.0946 22.9427 95.4913 22.6907 95.9486 22.532C96.4153 22.364 96.8866 22.28 97.3626 22.28C98.3333 22.28 99.0333 22.5087 99.4626 22.966C99.892 23.4233 100.107 24.1187 100.107 25.052V27.866C100.107 28.0527 100.116 28.2487 100.135 28.454C100.153 28.65 100.177 28.832 100.205 29H99.1546C99.1173 28.8507 99.094 28.6873 99.0846 28.51C99.0846 28.3233 99.0846 28.16 99.0846 28.02H99.0566C98.842 28.356 98.5526 28.6313 98.1886 28.846C97.834 29.0607 97.4046 29.168 96.9006 29.168C96.5646 29.168 96.2473 29.126 95.9486 29.042C95.6593 28.958 95.4026 28.8367 95.1786 28.678C94.964 28.51 94.7913 28.3047 94.6606 28.062C94.53 27.8193 94.4646 27.5393 94.4646 27.222C94.4646 26.6807 94.6046 26.256 94.8846 25.948C95.1646 25.64 95.51 25.4113 95.9206 25.262C96.3406 25.1127 96.7886 25.0193 97.2646 24.982C97.75 24.9447 98.1933 24.926 98.5946 24.926H99.0146V24.73C99.0146 24.254 98.87 23.8947 98.5806 23.652C98.3006 23.4093 97.904 23.288 97.3906 23.288C97.036 23.288 96.686 23.3487 96.3406 23.47C96.0046 23.582 95.706 23.7593 95.4446 24.002L94.7586 23.288ZM97.9226 25.85C97.2226 25.85 96.6673 25.948 96.2566 26.144C95.846 26.34 95.6406 26.662 95.6406 27.11C95.6406 27.5207 95.776 27.8147 96.0466 27.992C96.3266 28.16 96.672 28.244 97.0826 28.244C97.4 28.244 97.6753 28.1927 97.9086 28.09C98.1513 27.978 98.352 27.8333 98.5106 27.656C98.6693 27.4787 98.7906 27.2733 98.8746 27.04C98.9586 26.7973 99.0053 26.5407 99.0146 26.27V25.85H97.9226ZM102.102 24.002C102.102 23.7033 102.093 23.4233 102.074 23.162C102.056 22.9007 102.046 22.6627 102.046 22.448H103.082C103.082 22.6253 103.087 22.8027 103.096 22.98C103.106 23.1573 103.11 23.3393 103.11 23.526H103.138C103.213 23.3673 103.316 23.2133 103.446 23.064C103.586 22.9147 103.75 22.784 103.936 22.672C104.123 22.5507 104.333 22.4573 104.566 22.392C104.8 22.3173 105.052 22.28 105.322 22.28C105.752 22.28 106.12 22.3453 106.428 22.476C106.746 22.6067 107.007 22.7887 107.212 23.022C107.418 23.2553 107.567 23.54 107.66 23.876C107.763 24.2027 107.814 24.562 107.814 24.954V29H106.722V25.066C106.722 24.5153 106.601 24.0813 106.358 23.764C106.116 23.4467 105.738 23.288 105.224 23.288C104.87 23.288 104.562 23.3487 104.3 23.47C104.048 23.5913 103.838 23.764 103.67 23.988C103.512 24.212 103.39 24.478 103.306 24.786C103.232 25.094 103.194 25.4347 103.194 25.808V29H102.102V24.002ZM113.876 22.448H114.968V29H113.876V22.448ZM113.624 19.886C113.624 19.6713 113.699 19.4847 113.848 19.326C114.007 19.1673 114.198 19.088 114.422 19.088C114.646 19.088 114.833 19.1673 114.982 19.326C115.141 19.4847 115.22 19.6713 115.22 19.886C115.22 20.1193 115.146 20.3107 114.996 20.46C114.847 20.6093 114.656 20.684 114.422 20.684C114.189 20.684 113.998 20.6093 113.848 20.46C113.699 20.3107 113.624 20.1193 113.624 19.886ZM117.141 24.002C117.141 23.7033 117.132 23.4233 117.113 23.162C117.095 22.9007 117.085 22.6627 117.085 22.448H118.121C118.121 22.6253 118.126 22.8027 118.135 22.98C118.145 23.1573 118.149 23.3393 118.149 23.526H118.177C118.252 23.3673 118.355 23.2133 118.485 23.064C118.625 22.9147 118.789 22.784 118.975 22.672C119.162 22.5507 119.372 22.4573 119.605 22.392C119.839 22.3173 120.091 22.28 120.361 22.28C120.716 22.28 121.01 22.3267 121.243 22.42C121.486 22.504 121.687 22.6113 121.845 22.742C122.004 22.8633 122.125 22.9987 122.209 23.148C122.303 23.288 122.377 23.414 122.433 23.526C122.676 23.134 122.956 22.8307 123.273 22.616C123.591 22.392 124.001 22.28 124.505 22.28C124.972 22.28 125.364 22.3453 125.681 22.476C125.999 22.5973 126.255 22.7793 126.451 23.022C126.647 23.2553 126.787 23.5447 126.871 23.89C126.955 24.226 126.997 24.604 126.997 25.024V29H125.905V25.08C125.905 24.856 125.882 24.6367 125.835 24.422C125.789 24.2073 125.705 24.016 125.583 23.848C125.462 23.68 125.299 23.5447 125.093 23.442C124.888 23.3393 124.627 23.288 124.309 23.288C124.076 23.288 123.857 23.3347 123.651 23.428C123.446 23.5213 123.264 23.652 123.105 23.82C122.956 23.988 122.835 24.1933 122.741 24.436C122.657 24.6693 122.615 24.9307 122.615 25.22V29H121.523V25.29C121.523 24.562 121.425 24.0487 121.229 23.75C121.033 23.442 120.711 23.288 120.263 23.288C119.909 23.288 119.601 23.3487 119.339 23.47C119.087 23.5913 118.877 23.764 118.709 23.988C118.551 24.212 118.429 24.478 118.345 24.786C118.271 25.094 118.233 25.4347 118.233 25.808V29H117.141V24.002ZM128.979 23.288C129.315 22.9427 129.712 22.6907 130.169 22.532C130.636 22.364 131.107 22.28 131.583 22.28C132.554 22.28 133.254 22.5087 133.683 22.966C134.113 23.4233 134.327 24.1187 134.327 25.052V27.866C134.327 28.0527 134.337 28.2487 134.355 28.454C134.374 28.65 134.397 28.832 134.425 29H133.375C133.338 28.8507 133.315 28.6873 133.305 28.51C133.305 28.3233 133.305 28.16 133.305 28.02H133.277C133.063 28.356 132.773 28.6313 132.409 28.846C132.055 29.0607 131.625 29.168 131.121 29.168C130.785 29.168 130.468 29.126 130.169 29.042C129.88 28.958 129.623 28.8367 129.399 28.678C129.185 28.51 129.012 28.3047 128.881 28.062C128.751 27.8193 128.685 27.5393 128.685 27.222C128.685 26.6807 128.825 26.256 129.105 25.948C129.385 25.64 129.731 25.4113 130.141 25.262C130.561 25.1127 131.009 25.0193 131.485 24.982C131.971 24.9447 132.414 24.926 132.815 24.926H133.235V24.73C133.235 24.254 133.091 23.8947 132.801 23.652C132.521 23.4093 132.125 23.288 131.611 23.288C131.257 23.288 130.907 23.3487 130.561 23.47C130.225 23.582 129.927 23.7593 129.665 24.002L128.979 23.288ZM132.143 25.85C131.443 25.85 130.888 25.948 130.477 26.144C130.067 26.34 129.861 26.662 129.861 27.11C129.861 27.5207 129.997 27.8147 130.267 27.992C130.547 28.16 130.893 28.244 131.303 28.244C131.621 28.244 131.896 28.1927 132.129 28.09C132.372 27.978 132.573 27.8333 132.731 27.656C132.89 27.4787 133.011 27.2733 133.095 27.04C133.179 26.7973 133.226 26.5407 133.235 26.27V25.85H132.143ZM142.861 28.706C142.861 29.9007 142.553 30.806 141.937 31.422C141.33 32.0473 140.448 32.36 139.291 32.36C138.647 32.36 138.064 32.2667 137.541 32.08C137.028 31.8933 136.538 31.5713 136.071 31.114L136.855 30.218C137.2 30.5913 137.564 30.8713 137.947 31.058C138.339 31.254 138.787 31.352 139.291 31.352C139.776 31.352 140.178 31.2773 140.495 31.128C140.822 30.988 141.078 30.792 141.265 30.54C141.452 30.2973 141.582 30.0173 141.657 29.7C141.732 29.3827 141.769 29.0513 141.769 28.706V27.866H141.741C141.48 28.286 141.139 28.594 140.719 28.79C140.299 28.986 139.87 29.084 139.431 29.084C138.918 29.084 138.446 29 138.017 28.832C137.588 28.664 137.219 28.4307 136.911 28.132C136.603 27.8333 136.365 27.4787 136.197 27.068C136.029 26.6573 135.945 26.2093 135.945 25.724C135.945 25.192 136.029 24.7113 136.197 24.282C136.365 23.8527 136.598 23.4933 136.897 23.204C137.205 22.9053 137.574 22.6767 138.003 22.518C138.432 22.3593 138.908 22.28 139.431 22.28C139.655 22.28 139.879 22.308 140.103 22.364C140.327 22.4107 140.542 22.49 140.747 22.602C140.962 22.7047 141.153 22.84 141.321 23.008C141.489 23.1667 141.629 23.3533 141.741 23.568H141.769V22.448H142.861V28.706ZM137.121 25.724C137.121 26.06 137.182 26.3727 137.303 26.662C137.424 26.942 137.588 27.1893 137.793 27.404C138.008 27.6093 138.255 27.7727 138.535 27.894C138.815 28.0153 139.114 28.076 139.431 28.076C139.804 28.076 140.136 28.0107 140.425 27.88C140.714 27.7493 140.957 27.5767 141.153 27.362C141.358 27.138 141.512 26.886 141.615 26.606C141.718 26.3167 141.769 26.0133 141.769 25.696C141.769 25.3413 141.713 25.0193 141.601 24.73C141.489 24.4313 141.33 24.1747 141.125 23.96C140.92 23.7453 140.672 23.582 140.383 23.47C140.094 23.3487 139.776 23.288 139.431 23.288C139.086 23.288 138.768 23.3533 138.479 23.484C138.199 23.6053 137.956 23.778 137.751 24.002C137.555 24.2167 137.401 24.4733 137.289 24.772C137.177 25.0613 137.121 25.3787 137.121 25.724ZM150.734 27.81C150.342 28.314 149.912 28.6687 149.446 28.874C148.979 29.07 148.438 29.168 147.822 29.168C147.308 29.168 146.846 29.0793 146.436 28.902C146.025 28.7153 145.675 28.468 145.386 28.16C145.106 27.852 144.886 27.488 144.728 27.068C144.578 26.648 144.504 26.2 144.504 25.724C144.504 25.22 144.588 24.758 144.756 24.338C144.924 23.9087 145.157 23.5447 145.456 23.246C145.754 22.938 146.109 22.7 146.52 22.532C146.93 22.364 147.378 22.28 147.864 22.28C148.321 22.28 148.741 22.3593 149.124 22.518C149.506 22.6673 149.833 22.8913 150.104 23.19C150.384 23.4793 150.598 23.8387 150.748 24.268C150.897 24.688 150.972 25.1687 150.972 25.71V26.06H145.68C145.698 26.34 145.764 26.6107 145.876 26.872C145.997 27.124 146.151 27.348 146.338 27.544C146.524 27.7307 146.744 27.88 146.996 27.992C147.248 28.104 147.523 28.16 147.822 28.16C148.298 28.16 148.699 28.076 149.026 27.908C149.352 27.74 149.646 27.4927 149.908 27.166L150.734 27.81ZM149.796 25.136C149.777 24.576 149.595 24.128 149.25 23.792C148.904 23.456 148.428 23.288 147.822 23.288C147.215 23.288 146.725 23.456 146.352 23.792C145.978 24.128 145.754 24.576 145.68 25.136H149.796ZM156.179 25.724C156.179 25.2107 156.268 24.744 156.445 24.324C156.623 23.904 156.865 23.5447 157.173 23.246C157.481 22.938 157.85 22.7 158.279 22.532C158.709 22.364 159.175 22.28 159.679 22.28C160.183 22.28 160.65 22.364 161.079 22.532C161.509 22.7 161.877 22.938 162.185 23.246C162.493 23.5447 162.736 23.904 162.913 24.324C163.091 24.744 163.179 25.2107 163.179 25.724C163.179 26.2373 163.091 26.704 162.913 27.124C162.736 27.544 162.493 27.908 162.185 28.216C161.877 28.5147 161.509 28.748 161.079 28.916C160.65 29.084 160.183 29.168 159.679 29.168C159.175 29.168 158.709 29.084 158.279 28.916C157.85 28.748 157.481 28.5147 157.173 28.216C156.865 27.908 156.623 27.544 156.445 27.124C156.268 26.704 156.179 26.2373 156.179 25.724ZM157.355 25.724C157.355 26.0693 157.407 26.3913 157.509 26.69C157.621 26.9793 157.78 27.236 157.985 27.46C158.191 27.6747 158.433 27.8473 158.713 27.978C159.003 28.0993 159.325 28.16 159.679 28.16C160.034 28.16 160.351 28.0993 160.631 27.978C160.921 27.8473 161.168 27.6747 161.373 27.46C161.579 27.236 161.733 26.9793 161.835 26.69C161.947 26.3913 162.003 26.0693 162.003 25.724C162.003 25.3787 161.947 25.0613 161.835 24.772C161.733 24.4733 161.579 24.2167 161.373 24.002C161.168 23.778 160.921 23.6053 160.631 23.484C160.351 23.3533 160.034 23.288 159.679 23.288C159.325 23.288 159.003 23.3533 158.713 23.484C158.433 23.6053 158.191 23.778 157.985 24.002C157.78 24.2167 157.621 24.4733 157.509 24.772C157.407 25.0613 157.355 25.3787 157.355 25.724ZM165.43 23.372H164.002V22.448H165.43V20.978C165.43 20.5767 165.467 20.2127 165.542 19.886C165.617 19.55 165.743 19.2607 165.92 19.018C166.107 18.7753 166.349 18.5887 166.648 18.458C166.947 18.318 167.315 18.248 167.754 18.248C167.894 18.248 168.043 18.262 168.202 18.29C168.361 18.318 168.491 18.36 168.594 18.416L168.44 19.396C168.179 19.3027 167.931 19.256 167.698 19.256C167.418 19.256 167.199 19.3073 167.04 19.41C166.881 19.5033 166.76 19.6387 166.676 19.816C166.601 19.984 166.555 20.1893 166.536 20.432C166.527 20.6747 166.522 20.936 166.522 21.216V22.448H168.118V23.372H166.522V29H165.43V23.372ZM175.59 30.498C175.478 30.778 175.362 31.03 175.24 31.254C175.128 31.4873 174.988 31.6833 174.82 31.842C174.662 32.01 174.466 32.136 174.232 32.22C174.008 32.3133 173.733 32.36 173.406 32.36C173.248 32.36 173.08 32.3507 172.902 32.332C172.734 32.3133 172.576 32.2667 172.426 32.192L172.566 31.24C172.678 31.2867 172.795 31.3147 172.916 31.324C173.038 31.3427 173.178 31.352 173.336 31.352C173.691 31.352 173.952 31.254 174.12 31.058C174.288 30.862 174.433 30.6007 174.554 30.274L175.002 29.042L172.286 22.448H173.56L175.59 27.586H175.618L177.564 22.448H178.754L175.59 30.498ZM179.558 25.724C179.558 25.2107 179.647 24.744 179.824 24.324C180.002 23.904 180.244 23.5447 180.552 23.246C180.86 22.938 181.229 22.7 181.658 22.532C182.088 22.364 182.554 22.28 183.058 22.28C183.562 22.28 184.029 22.364 184.458 22.532C184.888 22.7 185.256 22.938 185.564 23.246C185.872 23.5447 186.115 23.904 186.292 24.324C186.47 24.744 186.558 25.2107 186.558 25.724C186.558 26.2373 186.47 26.704 186.292 27.124C186.115 27.544 185.872 27.908 185.564 28.216C185.256 28.5147 184.888 28.748 184.458 28.916C184.029 29.084 183.562 29.168 183.058 29.168C182.554 29.168 182.088 29.084 181.658 28.916C181.229 28.748 180.86 28.5147 180.552 28.216C180.244 27.908 180.002 27.544 179.824 27.124C179.647 26.704 179.558 26.2373 179.558 25.724ZM180.734 25.724C180.734 26.0693 180.786 26.3913 180.888 26.69C181 26.9793 181.159 27.236 181.364 27.46C181.57 27.6747 181.812 27.8473 182.092 27.978C182.382 28.0993 182.704 28.16 183.058 28.16C183.413 28.16 183.73 28.0993 184.01 27.978C184.3 27.8473 184.547 27.6747 184.752 27.46C184.958 27.236 185.112 26.9793 185.214 26.69C185.326 26.3913 185.382 26.0693 185.382 25.724C185.382 25.3787 185.326 25.0613 185.214 24.772C185.112 24.4733 184.958 24.2167 184.752 24.002C184.547 23.778 184.3 23.6053 184.01 23.484C183.73 23.3533 183.413 23.288 183.058 23.288C182.704 23.288 182.382 23.3533 182.092 23.484C181.812 23.6053 181.57 23.778 181.364 24.002C181.159 24.2167 181 24.4733 180.888 24.772C180.786 25.0613 180.734 25.3787 180.734 25.724ZM193.961 27.446C193.961 27.7447 193.97 28.0247 193.989 28.286C194.008 28.5473 194.017 28.7853 194.017 29H192.981C192.981 28.8227 192.976 28.6453 192.967 28.468C192.958 28.2907 192.953 28.1087 192.953 27.922H192.925C192.85 28.0807 192.743 28.2347 192.603 28.384C192.472 28.5333 192.314 28.6687 192.127 28.79C191.94 28.902 191.73 28.9907 191.497 29.056C191.264 29.1307 191.012 29.168 190.741 29.168C190.312 29.168 189.938 29.1027 189.621 28.972C189.313 28.8413 189.056 28.6593 188.851 28.426C188.646 28.1927 188.492 27.9127 188.389 27.586C188.296 27.25 188.249 26.886 188.249 26.494V22.448H189.341V26.382C189.341 26.9327 189.462 27.3667 189.705 27.684C189.948 28.0013 190.326 28.16 190.839 28.16C191.194 28.16 191.497 28.0993 191.749 27.978C192.01 27.8567 192.22 27.684 192.379 27.46C192.547 27.236 192.668 26.97 192.743 26.662C192.827 26.354 192.869 26.0133 192.869 25.64V22.448H193.961V27.446ZM196.028 24.002C196.028 23.7033 196.019 23.4233 196 23.162C195.982 22.9007 195.972 22.6627 195.972 22.448H197.008C197.008 22.6253 197.013 22.8027 197.022 22.98C197.032 23.1573 197.036 23.3393 197.036 23.526H197.064C197.139 23.3673 197.242 23.2133 197.372 23.064C197.512 22.9147 197.676 22.784 197.862 22.672C198.049 22.5507 198.259 22.4573 198.492 22.392C198.726 22.3173 198.978 22.28 199.248 22.28C199.323 22.28 199.398 22.2847 199.472 22.294C199.547 22.3033 199.622 22.322 199.696 22.35L199.626 23.456C199.44 23.4 199.244 23.372 199.038 23.372C198.366 23.372 197.876 23.5913 197.568 24.03C197.27 24.4593 197.12 25.052 197.12 25.808V29H196.028V24.002ZM207.829 29H206.625L203.951 22.448H205.225L207.269 27.586H207.297L209.243 22.448H210.419L207.829 29ZM217.452 27.81C217.06 28.314 216.631 28.6687 216.164 28.874C215.698 29.07 215.156 29.168 214.54 29.168C214.027 29.168 213.565 29.0793 213.154 28.902C212.744 28.7153 212.394 28.468 212.104 28.16C211.824 27.852 211.605 27.488 211.446 27.068C211.297 26.648 211.222 26.2 211.222 25.724C211.222 25.22 211.306 24.758 211.474 24.338C211.642 23.9087 211.876 23.5447 212.174 23.246C212.473 22.938 212.828 22.7 213.238 22.532C213.649 22.364 214.097 22.28 214.582 22.28C215.04 22.28 215.46 22.3593 215.842 22.518C216.225 22.6673 216.552 22.8913 216.822 23.19C217.102 23.4793 217.317 23.8387 217.466 24.268C217.616 24.688 217.69 25.1687 217.69 25.71V26.06H212.398C212.417 26.34 212.482 26.6107 212.594 26.872C212.716 27.124 212.87 27.348 213.056 27.544C213.243 27.7307 213.462 27.88 213.714 27.992C213.966 28.104 214.242 28.16 214.54 28.16C215.016 28.16 215.418 28.076 215.744 27.908C216.071 27.74 216.365 27.4927 216.626 27.166L217.452 27.81ZM216.514 25.136C216.496 24.576 216.314 24.128 215.968 23.792C215.623 23.456 215.147 23.288 214.54 23.288C213.934 23.288 213.444 23.456 213.07 23.792C212.697 24.128 212.473 24.576 212.398 25.136H216.514ZM219.38 18.416H220.472V23.358H220.5C220.574 23.2273 220.677 23.1013 220.808 22.98C220.938 22.8493 221.092 22.7327 221.27 22.63C221.456 22.5273 221.662 22.4433 221.886 22.378C222.11 22.3127 222.348 22.28 222.6 22.28C223.029 22.28 223.398 22.3453 223.706 22.476C224.023 22.6067 224.284 22.7887 224.49 23.022C224.695 23.2553 224.844 23.54 224.938 23.876C225.04 24.2027 225.092 24.562 225.092 24.954V29H224V25.066C224 24.5153 223.878 24.0813 223.636 23.764C223.393 23.4467 223.015 23.288 222.502 23.288C222.147 23.288 221.839 23.3487 221.578 23.47C221.326 23.5913 221.116 23.764 220.948 23.988C220.789 24.212 220.668 24.478 220.584 24.786C220.509 25.094 220.472 25.4347 220.472 25.808V29H219.38V18.416ZM227.257 22.448H228.349V29H227.257V22.448ZM227.005 19.886C227.005 19.6713 227.08 19.4847 227.229 19.326C227.388 19.1673 227.579 19.088 227.803 19.088C228.027 19.088 228.214 19.1673 228.363 19.326C228.522 19.4847 228.601 19.6713 228.601 19.886C228.601 20.1193 228.526 20.3107 228.377 20.46C228.228 20.6093 228.036 20.684 227.803 20.684C227.57 20.684 227.378 20.6093 227.229 20.46C227.08 20.3107 227.005 20.1193 227.005 19.886ZM235.184 24.086C234.951 23.806 234.699 23.6053 234.428 23.484C234.158 23.3533 233.859 23.288 233.532 23.288C233.168 23.288 232.846 23.3533 232.566 23.484C232.286 23.6053 232.053 23.778 231.866 24.002C231.689 24.226 231.554 24.4873 231.46 24.786C231.367 25.0753 231.32 25.388 231.32 25.724C231.32 26.06 231.372 26.3773 231.474 26.676C231.586 26.9653 231.736 27.222 231.922 27.446C232.118 27.67 232.352 27.8473 232.622 27.978C232.893 28.0993 233.196 28.16 233.532 28.16C234.251 28.16 234.806 27.8893 235.198 27.348L236.01 28.118C235.693 28.482 235.32 28.748 234.89 28.916C234.461 29.084 234.008 29.168 233.532 29.168C233.028 29.168 232.566 29.084 232.146 28.916C231.726 28.748 231.367 28.51 231.068 28.202C230.779 27.894 230.55 27.53 230.382 27.11C230.224 26.69 230.144 26.228 230.144 25.724C230.144 25.2293 230.224 24.772 230.382 24.352C230.55 23.932 230.784 23.568 231.082 23.26C231.381 22.952 231.736 22.714 232.146 22.546C232.566 22.3687 233.028 22.28 233.532 22.28C234.018 22.28 234.475 22.364 234.904 22.532C235.343 22.7 235.726 22.9613 236.052 23.316L235.184 24.086ZM237.374 18.416H238.466V29H237.374V18.416ZM246.492 27.81C246.1 28.314 245.67 28.6687 245.204 28.874C244.737 29.07 244.196 29.168 243.58 29.168C243.066 29.168 242.604 29.0793 242.194 28.902C241.783 28.7153 241.433 28.468 241.144 28.16C240.864 27.852 240.644 27.488 240.486 27.068C240.336 26.648 240.262 26.2 240.262 25.724C240.262 25.22 240.346 24.758 240.514 24.338C240.682 23.9087 240.915 23.5447 241.214 23.246C241.512 22.938 241.867 22.7 242.278 22.532C242.688 22.364 243.136 22.28 243.622 22.28C244.079 22.28 244.499 22.3593 244.882 22.518C245.264 22.6673 245.591 22.8913 245.862 23.19C246.142 23.4793 246.356 23.8387 246.506 24.268C246.655 24.688 246.73 25.1687 246.73 25.71V26.06H241.438C241.456 26.34 241.522 26.6107 241.634 26.872C241.755 27.124 241.909 27.348 242.096 27.544C242.282 27.7307 242.502 27.88 242.754 27.992C243.006 28.104 243.281 28.16 243.58 28.16C244.056 28.16 244.457 28.076 244.784 27.908C245.11 27.74 245.404 27.4927 245.666 27.166L246.492 27.81ZM245.554 25.136C245.535 24.576 245.353 24.128 245.008 23.792C244.662 23.456 244.186 23.288 243.58 23.288C242.973 23.288 242.483 23.456 242.11 23.792C241.736 24.128 241.512 24.576 241.438 25.136H245.554ZM252.231 23.288C252.567 22.9427 252.964 22.6907 253.421 22.532C253.888 22.364 254.359 22.28 254.835 22.28C255.806 22.28 256.506 22.5087 256.935 22.966C257.365 23.4233 257.579 24.1187 257.579 25.052V27.866C257.579 28.0527 257.589 28.2487 257.607 28.454C257.626 28.65 257.649 28.832 257.677 29H256.627C256.59 28.8507 256.567 28.6873 256.557 28.51C256.557 28.3233 256.557 28.16 256.557 28.02H256.529C256.315 28.356 256.025 28.6313 255.661 28.846C255.307 29.0607 254.877 29.168 254.373 29.168C254.037 29.168 253.72 29.126 253.421 29.042C253.132 28.958 252.875 28.8367 252.651 28.678C252.437 28.51 252.264 28.3047 252.133 28.062C252.003 27.8193 251.937 27.5393 251.937 27.222C251.937 26.6807 252.077 26.256 252.357 25.948C252.637 25.64 252.983 25.4113 253.393 25.262C253.813 25.1127 254.261 25.0193 254.737 24.982C255.223 24.9447 255.666 24.926 256.067 24.926H256.487V24.73C256.487 24.254 256.343 23.8947 256.053 23.652C255.773 23.4093 255.377 23.288 254.863 23.288C254.509 23.288 254.159 23.3487 253.813 23.47C253.477 23.582 253.179 23.7593 252.917 24.002L252.231 23.288ZM255.395 25.85C254.695 25.85 254.14 25.948 253.729 26.144C253.319 26.34 253.113 26.662 253.113 27.11C253.113 27.5207 253.249 27.8147 253.519 27.992C253.799 28.16 254.145 28.244 254.555 28.244C254.873 28.244 255.148 28.1927 255.381 28.09C255.624 27.978 255.825 27.8333 255.983 27.656C256.142 27.4787 256.263 27.2733 256.347 27.04C256.431 26.7973 256.478 26.5407 256.487 26.27V25.85H255.395ZM259.673 18.416H260.765V29H259.673V18.416ZM262.56 25.724C262.56 25.2107 262.649 24.744 262.826 24.324C263.004 23.904 263.246 23.5447 263.554 23.246C263.862 22.938 264.231 22.7 264.66 22.532C265.09 22.364 265.556 22.28 266.06 22.28C266.564 22.28 267.031 22.364 267.46 22.532C267.89 22.7 268.258 22.938 268.566 23.246C268.874 23.5447 269.117 23.904 269.294 24.324C269.472 24.744 269.56 25.2107 269.56 25.724C269.56 26.2373 269.472 26.704 269.294 27.124C269.117 27.544 268.874 27.908 268.566 28.216C268.258 28.5147 267.89 28.748 267.46 28.916C267.031 29.084 266.564 29.168 266.06 29.168C265.556 29.168 265.09 29.084 264.66 28.916C264.231 28.748 263.862 28.5147 263.554 28.216C263.246 27.908 263.004 27.544 262.826 27.124C262.649 26.704 262.56 26.2373 262.56 25.724ZM263.736 25.724C263.736 26.0693 263.788 26.3913 263.89 26.69C264.002 26.9793 264.161 27.236 264.366 27.46C264.572 27.6747 264.814 27.8473 265.094 27.978C265.384 28.0993 265.706 28.16 266.06 28.16C266.415 28.16 266.732 28.0993 267.012 27.978C267.302 27.8473 267.549 27.6747 267.754 27.46C267.96 27.236 268.114 26.9793 268.216 26.69C268.328 26.3913 268.384 26.0693 268.384 25.724C268.384 25.3787 268.328 25.0613 268.216 24.772C268.114 24.4733 267.96 24.2167 267.754 24.002C267.549 23.778 267.302 23.6053 267.012 23.484C266.732 23.3533 266.415 23.288 266.06 23.288C265.706 23.288 265.384 23.3533 265.094 23.484C264.814 23.6053 264.572 23.778 264.366 24.002C264.161 24.2167 264.002 24.4733 263.89 24.772C263.788 25.0613 263.736 25.3787 263.736 25.724ZM271.251 24.002C271.251 23.7033 271.242 23.4233 271.223 23.162C271.204 22.9007 271.195 22.6627 271.195 22.448H272.231C272.231 22.6253 272.236 22.8027 272.245 22.98C272.254 23.1573 272.259 23.3393 272.259 23.526H272.287C272.362 23.3673 272.464 23.2133 272.595 23.064C272.735 22.9147 272.898 22.784 273.085 22.672C273.272 22.5507 273.482 22.4573 273.715 22.392C273.948 22.3173 274.2 22.28 274.471 22.28C274.9 22.28 275.269 22.3453 275.577 22.476C275.894 22.6067 276.156 22.7887 276.361 23.022C276.566 23.2553 276.716 23.54 276.809 23.876C276.912 24.2027 276.963 24.562 276.963 24.954V29H275.871V25.066C275.871 24.5153 275.75 24.0813 275.507 23.764C275.264 23.4467 274.886 23.288 274.373 23.288C274.018 23.288 273.71 23.3487 273.449 23.47C273.197 23.5913 272.987 23.764 272.819 23.988C272.66 24.212 272.539 24.478 272.455 24.786C272.38 25.094 272.343 25.4347 272.343 25.808V29H271.251V24.002ZM285.568 28.706C285.568 29.9007 285.26 30.806 284.644 31.422C284.037 32.0473 283.155 32.36 281.998 32.36C281.354 32.36 280.771 32.2667 280.248 32.08C279.735 31.8933 279.245 31.5713 278.778 31.114L279.562 30.218C279.907 30.5913 280.271 30.8713 280.654 31.058C281.046 31.254 281.494 31.352 281.998 31.352C282.483 31.352 282.885 31.2773 283.202 31.128C283.529 30.988 283.785 30.792 283.972 30.54C284.159 30.2973 284.289 30.0173 284.364 29.7C284.439 29.3827 284.476 29.0513 284.476 28.706V27.866H284.448C284.187 28.286 283.846 28.594 283.426 28.79C283.006 28.986 282.577 29.084 282.138 29.084C281.625 29.084 281.153 29 280.724 28.832C280.295 28.664 279.926 28.4307 279.618 28.132C279.31 27.8333 279.072 27.4787 278.904 27.068C278.736 26.6573 278.652 26.2093 278.652 25.724C278.652 25.192 278.736 24.7113 278.904 24.282C279.072 23.8527 279.305 23.4933 279.604 23.204C279.912 22.9053 280.281 22.6767 280.71 22.518C281.139 22.3593 281.615 22.28 282.138 22.28C282.362 22.28 282.586 22.308 282.81 22.364C283.034 22.4107 283.249 22.49 283.454 22.602C283.669 22.7047 283.86 22.84 284.028 23.008C284.196 23.1667 284.336 23.3533 284.448 23.568H284.476V22.448H285.568V28.706ZM279.828 25.724C279.828 26.06 279.889 26.3727 280.01 26.662C280.131 26.942 280.295 27.1893 280.5 27.404C280.715 27.6093 280.962 27.7727 281.242 27.894C281.522 28.0153 281.821 28.076 282.138 28.076C282.511 28.076 282.843 28.0107 283.132 27.88C283.421 27.7493 283.664 27.5767 283.86 27.362C284.065 27.138 284.219 26.886 284.322 26.606C284.425 26.3167 284.476 26.0133 284.476 25.696C284.476 25.3413 284.42 25.0193 284.308 24.73C284.196 24.4313 284.037 24.1747 283.832 23.96C283.627 23.7453 283.379 23.582 283.09 23.47C282.801 23.3487 282.483 23.288 282.138 23.288C281.793 23.288 281.475 23.3533 281.186 23.484C280.906 23.6053 280.663 23.778 280.458 24.002C280.262 24.2167 280.108 24.4733 279.996 24.772C279.884 25.0613 279.828 25.3787 279.828 25.724ZM52.064 54H50.986L49.124 48.96H49.096L47.444 54H46.324L44.196 47.448H45.4L46.898 52.488H46.926L48.62 47.448H49.768L51.49 52.488H51.518L53.002 47.448H54.178L52.064 54ZM55.511 47.448H56.603V54H55.511V47.448ZM55.259 44.886C55.259 44.6713 55.3336 44.4847 55.483 44.326C55.6416 44.1673 55.833 44.088 56.057 44.088C56.281 44.088 56.4676 44.1673 56.617 44.326C56.7756 44.4847 56.855 44.6713 56.855 44.886C56.855 45.1193 56.7803 45.3107 56.631 45.46C56.4816 45.6093 56.2903 45.684 56.057 45.684C55.8236 45.684 55.6323 45.6093 55.483 45.46C55.3336 45.3107 55.259 45.1193 55.259 44.886ZM62.3602 48.372H60.4282V51.648C60.4282 51.8627 60.4329 52.0633 60.4422 52.25C60.4516 52.4273 60.4889 52.586 60.5542 52.726C60.6196 52.8567 60.7176 52.964 60.8482 53.048C60.9789 53.1227 61.1656 53.16 61.4082 53.16C61.5669 53.16 61.7302 53.1413 61.8982 53.104C62.0662 53.0667 62.2249 53.0107 62.3742 52.936L62.4162 53.93C62.2296 54.014 62.0196 54.0747 61.7862 54.112C61.5622 54.1493 61.3476 54.168 61.1422 54.168C60.7502 54.168 60.4376 54.1167 60.2042 54.014C59.9709 53.9113 59.7889 53.7667 59.6582 53.58C59.5276 53.3933 59.4389 53.1647 59.3922 52.894C59.3549 52.614 59.3362 52.306 59.3362 51.97V48.372H57.9082V47.448H59.3362V45.586H60.4282V47.448H62.3602V48.372ZM63.7118 43.416H64.8038V48.358H64.8318C64.9064 48.2273 65.0091 48.1013 65.1398 47.98C65.2704 47.8493 65.4244 47.7327 65.6018 47.63C65.7884 47.5273 65.9938 47.4433 66.2178 47.378C66.4418 47.3127 66.6798 47.28 66.9318 47.28C67.3611 47.28 67.7298 47.3453 68.0378 47.476C68.3551 47.6067 68.6164 47.7887 68.8218 48.022C69.0271 48.2553 69.1764 48.54 69.2698 48.876C69.3724 49.2027 69.4238 49.562 69.4238 49.954V54H68.3318V50.066C68.3318 49.5153 68.2104 49.0813 67.9678 48.764C67.7251 48.4467 67.3471 48.288 66.8338 48.288C66.4791 48.288 66.1711 48.3487 65.9098 48.47C65.6578 48.5913 65.4478 48.764 65.2798 48.988C65.1211 49.212 64.9998 49.478 64.9158 49.786C64.8411 50.094 64.8038 50.4347 64.8038 50.808V54H63.7118V43.416ZM78.9716 48.372H77.0396V51.648C77.0396 51.8627 77.0442 52.0633 77.0536 52.25C77.0629 52.4273 77.1002 52.586 77.1656 52.726C77.2309 52.8567 77.3289 52.964 77.4596 53.048C77.5902 53.1227 77.7769 53.16 78.0196 53.16C78.1782 53.16 78.3416 53.1413 78.5096 53.104C78.6776 53.0667 78.8362 53.0107 78.9856 52.936L79.0276 53.93C78.8409 54.014 78.6309 54.0747 78.3976 54.112C78.1736 54.1493 77.9589 54.168 77.7536 54.168C77.3616 54.168 77.0489 54.1167 76.8156 54.014C76.5822 53.9113 76.4002 53.7667 76.2696 53.58C76.1389 53.3933 76.0502 53.1647 76.0036 52.894C75.9662 52.614 75.9476 52.306 75.9476 51.97V48.372H74.5196V47.448H75.9476V45.586H77.0396V47.448H78.9716V48.372ZM80.3231 43.416H81.4151V48.358H81.4431C81.5178 48.2273 81.6204 48.1013 81.7511 47.98C81.8818 47.8493 82.0358 47.7327 82.2131 47.63C82.3998 47.5273 82.6051 47.4433 82.8291 47.378C83.0531 47.3127 83.2911 47.28 83.5431 47.28C83.9724 47.28 84.3411 47.3453 84.6491 47.476C84.9664 47.6067 85.2278 47.7887 85.4331 48.022C85.6384 48.2553 85.7878 48.54 85.8811 48.876C85.9838 49.2027 86.0351 49.562 86.0351 49.954V54H84.9431V50.066C84.9431 49.5153 84.8218 49.0813 84.5791 48.764C84.3364 48.4467 83.9584 48.288 83.4451 48.288C83.0904 48.288 82.7824 48.3487 82.5211 48.47C82.2691 48.5913 82.0591 48.764 81.8911 48.988C81.7324 49.212 81.6111 49.478 81.5271 49.786C81.4524 50.094 81.4151 50.4347 81.4151 50.808V54H80.3231V43.416ZM93.9544 52.81C93.5624 53.314 93.1331 53.6687 92.6664 53.874C92.1997 54.07 91.6584 54.168 91.0424 54.168C90.5291 54.168 90.0671 54.0793 89.6564 53.902C89.2457 53.7153 88.8957 53.468 88.6064 53.16C88.3264 52.852 88.1071 52.488 87.9484 52.068C87.7991 51.648 87.7244 51.2 87.7244 50.724C87.7244 50.22 87.8084 49.758 87.9764 49.338C88.1444 48.9087 88.3777 48.5447 88.6764 48.246C88.9751 47.938 89.3297 47.7 89.7404 47.532C90.1511 47.364 90.5991 47.28 91.0844 47.28C91.5417 47.28 91.9617 47.3593 92.3444 47.518C92.7271 47.6673 93.0537 47.8913 93.3244 48.19C93.6044 48.4793 93.8191 48.8387 93.9684 49.268C94.1177 49.688 94.1924 50.1687 94.1924 50.71V51.06H88.9004C88.9191 51.34 88.9844 51.6107 89.0964 51.872C89.2177 52.124 89.3717 52.348 89.5584 52.544C89.7451 52.7307 89.9644 52.88 90.2164 52.992C90.4684 53.104 90.7437 53.16 91.0424 53.16C91.5184 53.16 91.9197 53.076 92.2464 52.908C92.5731 52.74 92.8671 52.4927 93.1284 52.166L93.9544 52.81ZM93.0164 50.136C92.9977 49.576 92.8157 49.128 92.4704 48.792C92.1251 48.456 91.6491 48.288 91.0424 48.288C90.4357 48.288 89.9457 48.456 89.5724 48.792C89.1991 49.128 88.9751 49.576 88.9004 50.136H93.0164ZM99.9742 44.088H102.508C102.984 44.088 103.456 44.116 103.922 44.172C104.398 44.228 104.823 44.3493 105.196 44.536C105.57 44.7227 105.873 44.998 106.106 45.362C106.34 45.7167 106.456 46.202 106.456 46.818C106.456 47.546 106.237 48.134 105.798 48.582C105.36 49.03 104.753 49.3147 103.978 49.436L106.792 54H105.35L102.662 49.548H101.15V54H99.9742V44.088ZM101.15 48.456H102.2C102.527 48.456 102.863 48.4467 103.208 48.428C103.563 48.4093 103.885 48.3487 104.174 48.246C104.473 48.1433 104.716 47.9847 104.902 47.77C105.098 47.546 105.196 47.2287 105.196 46.818C105.196 46.4633 105.126 46.1787 104.986 45.964C104.846 45.7493 104.66 45.586 104.426 45.474C104.202 45.3527 103.946 45.2733 103.656 45.236C103.376 45.1987 103.092 45.18 102.802 45.18H101.15V48.456ZM115.477 46.132C115.178 45.7307 114.809 45.432 114.371 45.236C113.932 45.0307 113.475 44.928 112.999 44.928C112.448 44.928 111.939 45.04 111.473 45.264C111.015 45.488 110.619 45.7913 110.283 46.174C109.947 46.5473 109.685 46.986 109.499 47.49C109.312 47.9847 109.219 48.5027 109.219 49.044C109.219 49.6227 109.312 50.164 109.499 50.668C109.685 51.1627 109.942 51.5967 110.269 51.97C110.605 52.334 111.001 52.6233 111.459 52.838C111.925 53.0527 112.439 53.16 112.999 53.16C113.605 53.16 114.147 53.0433 114.623 52.81C115.099 52.5673 115.514 52.222 115.869 51.774L116.751 52.516C116.303 53.1133 115.761 53.552 115.127 53.832C114.501 54.112 113.792 54.252 112.999 54.252C112.289 54.252 111.627 54.1213 111.011 53.86C110.395 53.5987 109.858 53.2393 109.401 52.782C108.953 52.3153 108.598 51.7647 108.337 51.13C108.085 50.4953 107.959 49.8 107.959 49.044C107.959 48.316 108.08 47.6347 108.323 47C108.575 46.3653 108.925 45.8147 109.373 45.348C109.821 44.8813 110.353 44.5127 110.969 44.242C111.585 43.9713 112.261 43.836 112.999 43.836C113.671 43.836 114.315 43.9573 114.931 44.2C115.556 44.4427 116.079 44.8393 116.499 45.39L115.477 46.132ZM122.091 49.002C122.091 48.7033 122.081 48.4233 122.063 48.162C122.044 47.9007 122.035 47.6627 122.035 47.448H123.071C123.071 47.6253 123.075 47.8027 123.085 47.98C123.094 48.1573 123.099 48.3393 123.099 48.526H123.127C123.201 48.3673 123.304 48.2133 123.435 48.064C123.575 47.9147 123.738 47.784 123.925 47.672C124.111 47.5507 124.321 47.4573 124.555 47.392C124.788 47.3173 125.04 47.28 125.311 47.28C125.74 47.28 126.109 47.3453 126.417 47.476C126.734 47.6067 126.995 47.7887 127.201 48.022C127.406 48.2553 127.555 48.54 127.649 48.876C127.751 49.2027 127.803 49.562 127.803 49.954V54H126.711V50.066C126.711 49.5153 126.589 49.0813 126.347 48.764C126.104 48.4467 125.726 48.288 125.213 48.288C124.858 48.288 124.55 48.3487 124.289 48.47C124.037 48.5913 123.827 48.764 123.659 48.988C123.5 49.212 123.379 49.478 123.295 49.786C123.22 50.094 123.183 50.4347 123.183 50.808V54H122.091V49.002ZM135.582 52.446C135.582 52.7447 135.591 53.0247 135.61 53.286C135.629 53.5473 135.638 53.7853 135.638 54H134.602C134.602 53.8227 134.597 53.6453 134.588 53.468C134.579 53.2907 134.574 53.1087 134.574 52.922H134.546C134.471 53.0807 134.364 53.2347 134.224 53.384C134.093 53.5333 133.935 53.6687 133.748 53.79C133.561 53.902 133.351 53.9907 133.118 54.056C132.885 54.1307 132.633 54.168 132.362 54.168C131.933 54.168 131.559 54.1027 131.242 53.972C130.934 53.8413 130.677 53.6593 130.472 53.426C130.267 53.1927 130.113 52.9127 130.01 52.586C129.917 52.25 129.87 51.886 129.87 51.494V47.448H130.962V51.382C130.962 51.9327 131.083 52.3667 131.326 52.684C131.569 53.0013 131.947 53.16 132.46 53.16C132.815 53.16 133.118 53.0993 133.37 52.978C133.631 52.8567 133.841 52.684 134 52.46C134.168 52.236 134.289 51.97 134.364 51.662C134.448 51.354 134.49 51.0133 134.49 50.64V47.448H135.582V52.446ZM137.649 49.002C137.649 48.7033 137.64 48.4233 137.621 48.162C137.603 47.9007 137.593 47.6627 137.593 47.448H138.629C138.629 47.6253 138.634 47.8027 138.643 47.98C138.653 48.1573 138.657 48.3393 138.657 48.526H138.685C138.76 48.3673 138.863 48.2133 138.993 48.064C139.133 47.9147 139.297 47.784 139.483 47.672C139.67 47.5507 139.88 47.4573 140.113 47.392C140.347 47.3173 140.599 47.28 140.869 47.28C141.224 47.28 141.518 47.3267 141.751 47.42C141.994 47.504 142.195 47.6113 142.353 47.742C142.512 47.8633 142.633 47.9987 142.717 48.148C142.811 48.288 142.885 48.414 142.941 48.526C143.184 48.134 143.464 47.8307 143.781 47.616C144.099 47.392 144.509 47.28 145.013 47.28C145.48 47.28 145.872 47.3453 146.189 47.476C146.507 47.5973 146.763 47.7793 146.959 48.022C147.155 48.2553 147.295 48.5447 147.379 48.89C147.463 49.226 147.505 49.604 147.505 50.024V54H146.413V50.08C146.413 49.856 146.39 49.6367 146.343 49.422C146.297 49.2073 146.213 49.016 146.091 48.848C145.97 48.68 145.807 48.5447 145.601 48.442C145.396 48.3393 145.135 48.288 144.817 48.288C144.584 48.288 144.365 48.3347 144.159 48.428C143.954 48.5213 143.772 48.652 143.613 48.82C143.464 48.988 143.343 49.1933 143.249 49.436C143.165 49.6693 143.123 49.9307 143.123 50.22V54H142.031V50.29C142.031 49.562 141.933 49.0487 141.737 48.75C141.541 48.442 141.219 48.288 140.771 48.288C140.417 48.288 140.109 48.3487 139.847 48.47C139.595 48.5913 139.385 48.764 139.217 48.988C139.059 49.212 138.937 49.478 138.853 49.786C138.779 50.094 138.741 50.4347 138.741 50.808V54H137.649V49.002ZM149.515 43.416H150.607V48.4H150.635C150.934 48.0453 151.279 47.77 151.671 47.574C152.072 47.378 152.511 47.28 152.987 47.28C153.5 47.28 153.967 47.3687 154.387 47.546C154.816 47.714 155.18 47.952 155.479 48.26C155.778 48.568 156.011 48.932 156.179 49.352C156.347 49.772 156.431 50.2293 156.431 50.724C156.431 51.2187 156.347 51.676 156.179 52.096C156.011 52.516 155.778 52.88 155.479 53.188C155.19 53.496 154.844 53.7387 154.443 53.916C154.042 54.084 153.612 54.168 153.155 54.168C152.567 54.168 152.049 54.042 151.601 53.79C151.162 53.5287 150.84 53.2113 150.635 52.838H150.607V54H149.515V43.416ZM150.607 50.724C150.607 51.0693 150.658 51.3913 150.761 51.69C150.873 51.9793 151.032 52.236 151.237 52.46C151.442 52.6747 151.685 52.8473 151.965 52.978C152.254 53.0993 152.576 53.16 152.931 53.16C153.286 53.16 153.603 53.0993 153.883 52.978C154.172 52.8473 154.42 52.6747 154.625 52.46C154.83 52.236 154.984 51.9793 155.087 51.69C155.199 51.3913 155.255 51.0693 155.255 50.724C155.255 50.3787 155.199 50.0613 155.087 49.772C154.984 49.4733 154.83 49.2167 154.625 49.002C154.42 48.778 154.172 48.6053 153.883 48.484C153.603 48.3533 153.286 48.288 152.931 48.288C152.576 48.288 152.254 48.3533 151.965 48.484C151.685 48.6053 151.442 48.778 151.237 49.002C151.032 49.2167 150.873 49.4733 150.761 49.772C150.658 50.0613 150.607 50.3787 150.607 50.724ZM163.982 52.81C163.59 53.314 163.16 53.6687 162.694 53.874C162.227 54.07 161.686 54.168 161.07 54.168C160.556 54.168 160.094 54.0793 159.684 53.902C159.273 53.7153 158.923 53.468 158.634 53.16C158.354 52.852 158.134 52.488 157.976 52.068C157.826 51.648 157.752 51.2 157.752 50.724C157.752 50.22 157.836 49.758 158.004 49.338C158.172 48.9087 158.405 48.5447 158.704 48.246C159.002 47.938 159.357 47.7 159.768 47.532C160.178 47.364 160.626 47.28 161.112 47.28C161.569 47.28 161.989 47.3593 162.372 47.518C162.754 47.6673 163.081 47.8913 163.352 48.19C163.632 48.4793 163.846 48.8387 163.996 49.268C164.145 49.688 164.22 50.1687 164.22 50.71V51.06H158.928C158.946 51.34 159.012 51.6107 159.124 51.872C159.245 52.124 159.399 52.348 159.586 52.544C159.772 52.7307 159.992 52.88 160.244 52.992C160.496 53.104 160.771 53.16 161.07 53.16C161.546 53.16 161.947 53.076 162.274 52.908C162.6 52.74 162.894 52.4927 163.156 52.166L163.982 52.81ZM163.044 50.136C163.025 49.576 162.843 49.128 162.498 48.792C162.152 48.456 161.676 48.288 161.07 48.288C160.463 48.288 159.973 48.456 159.6 48.792C159.226 49.128 159.002 49.576 158.928 50.136H163.044ZM165.909 49.002C165.909 48.7033 165.9 48.4233 165.881 48.162C165.862 47.9007 165.853 47.6627 165.853 47.448H166.889C166.889 47.6253 166.894 47.8027 166.903 47.98C166.912 48.1573 166.917 48.3393 166.917 48.526H166.945C167.02 48.3673 167.122 48.2133 167.253 48.064C167.393 47.9147 167.556 47.784 167.743 47.672C167.93 47.5507 168.14 47.4573 168.373 47.392C168.606 47.3173 168.858 47.28 169.129 47.28C169.204 47.28 169.278 47.2847 169.353 47.294C169.428 47.3033 169.502 47.322 169.577 47.35L169.507 48.456C169.32 48.4 169.124 48.372 168.919 48.372C168.247 48.372 167.757 48.5913 167.449 49.03C167.15 49.4593 167.001 50.052 167.001 50.808V54H165.909V49.002ZM170.456 52.404C170.689 52.404 170.885 52.488 171.044 52.656C171.212 52.8147 171.296 53.0107 171.296 53.244C171.296 53.4773 171.207 53.678 171.03 53.846C170.862 54.0047 170.67 54.084 170.456 54.084C170.241 54.084 170.045 54.0047 169.868 53.846C169.7 53.678 169.616 53.4773 169.616 53.244C169.616 53.0107 169.695 52.8147 169.854 52.656C170.022 52.488 170.222 52.404 170.456 52.404Z" fill="white"/>
<path d="M123.504 86.6127C121.122 85.3684 114.625 87.4629 112.932 88.5498C112.378 87.5657 111.749 86.4878 111.067 85.3841C107.581 79.7413 104.625 76.4712 102.029 75.3876C101.925 75.344 101.817 75.3092 101.707 75.2832C101.485 75.2308 96.0899 74 82.0001 74C67.9103 74 62.5154 75.231 62.2926 75.2832C62.1825 75.3092 62.075 75.344 61.9709 75.3876C59.3752 76.4714 56.4189 79.7413 52.933 85.3841C52.2513 86.4878 51.6222 87.5657 51.0682 88.5498C49.3755 87.4629 42.8775 85.3684 40.4962 86.6127C38.0389 87.8966 39.0235 91.9379 40.4962 93.034C41.4156 93.7181 43.9383 93.9264 46.5948 93.7502C45.9938 94.549 45.5201 95.4481 45.1995 96.4165C49.3888 97.2004 59.2367 97.1665 57.765 100.353C55.6116 105.014 48.9837 104.369 44.8981 102.297L45.661 115.439C45.661 118.51 48.1557 121 51.2329 121H54.5836C57.6608 121 60.1552 118.51 60.1552 115.439L60.0459 114.261H103.954L103.845 115.439C103.845 118.51 106.339 121 109.417 121H112.767C115.845 121 118.339 118.51 118.339 115.439L119.102 102.297C115.017 104.369 108.389 105.015 106.235 100.353C104.763 97.1665 114.611 97.2004 118.801 96.4165C118.48 95.448 118.007 94.5489 117.405 93.7502C120.062 93.9266 122.585 93.7183 123.504 93.034C124.976 91.9379 125.961 87.8966 123.504 86.6127ZM92.7214 108.085H71.2783L69.0503 99.9768H94.9492L92.7214 108.085ZM54.9432 90.0199C57.6105 85.3624 61.019 80.3887 63.4009 79.2424C64.3996 79.0466 69.8483 78.1026 81.9999 78.1026C94.1655 78.1026 99.6129 79.0488 100.598 79.2422C102.977 80.3869 106.387 85.3613 109.055 90.0199H54.9432Z" fill="#757575"/>
<path d="M99.9513 104.5C99.9513 107.799 98.0711 110.887 94.8276 113.191C91.5865 115.494 87.0545 116.951 82 116.951C76.9455 116.951 72.4135 115.494 69.1724 113.191C65.9289 110.887 64.0487 107.799 64.0487 104.5C64.0487 101.201 65.9289 98.1135 69.1724 95.8089C72.4135 93.506 76.9455 92.0487 82 92.0487C87.0545 92.0487 91.5865 93.506 94.8276 95.8089C98.0711 98.1135 99.9513 101.201 99.9513 104.5Z" stroke="white" stroke-width="2.09735"/>
<line x1="99.2677" y1="99.5107" x2="156.019" y2="91.4034" stroke="white" stroke-width="2.09735"/>
<rect x="155" y="85" width="53" height="15" rx="1.39823" fill="white"/>
<path d="M160.164 90.2032H161.412V92.5552L163.612 90.2032H165.244L162.724 92.8352L165.46 95.8672H163.716L161.412 93.1792V95.8672H160.164V90.2032ZM165.937 90.2032H167.185V94.7152H169.497V95.8672H165.937V90.2032ZM169.874 93.0352C169.874 92.6992 169.904 92.3579 169.962 92.0112C170.026 91.6645 170.136 91.3499 170.29 91.0672C170.45 90.7845 170.666 90.5552 170.938 90.3792C171.21 90.1979 171.557 90.1072 171.978 90.1072C172.4 90.1072 172.746 90.1979 173.018 90.3792C173.29 90.5552 173.504 90.7845 173.658 91.0672C173.818 91.3499 173.928 91.6645 173.986 92.0112C174.05 92.3579 174.082 92.6992 174.082 93.0352C174.082 93.3712 174.05 93.7125 173.986 94.0592C173.928 94.4059 173.818 94.7205 173.658 95.0032C173.504 95.2859 173.29 95.5179 173.018 95.6992C172.746 95.8752 172.4 95.9632 171.978 95.9632C171.557 95.9632 171.21 95.8752 170.938 95.6992C170.666 95.5179 170.45 95.2859 170.29 95.0032C170.136 94.7205 170.026 94.4059 169.962 94.0592C169.904 93.7125 169.874 93.3712 169.874 93.0352ZM171.074 93.0352C171.074 93.1845 171.08 93.3632 171.09 93.5712C171.106 93.7792 171.144 93.9792 171.202 94.1712C171.261 94.3632 171.349 94.5259 171.466 94.6592C171.589 94.7925 171.76 94.8592 171.978 94.8592C172.192 94.8592 172.36 94.7925 172.482 94.6592C172.605 94.5259 172.696 94.3632 172.754 94.1712C172.813 93.9792 172.848 93.7792 172.858 93.5712C172.874 93.3632 172.882 93.1845 172.882 93.0352C172.882 92.8859 172.874 92.7072 172.858 92.4992C172.848 92.2912 172.813 92.0912 172.754 91.8992C172.696 91.7072 172.605 91.5445 172.482 91.4112C172.36 91.2779 172.192 91.2112 171.978 91.2112C171.76 91.2112 171.589 91.2779 171.466 91.4112C171.349 91.5445 171.261 91.7072 171.202 91.8992C171.144 92.0912 171.106 92.2912 171.09 92.4992C171.08 92.7072 171.074 92.8859 171.074 93.0352ZM174.609 93.0352C174.609 92.6992 174.638 92.3579 174.697 92.0112C174.761 91.6645 174.87 91.3499 175.025 91.0672C175.185 90.7845 175.401 90.5552 175.673 90.3792C175.945 90.1979 176.291 90.1072 176.713 90.1072C177.134 90.1072 177.481 90.1979 177.753 90.3792C178.025 90.5552 178.238 90.7845 178.393 91.0672C178.553 91.3499 178.662 91.6645 178.721 92.0112C178.785 92.3579 178.817 92.6992 178.817 93.0352C178.817 93.3712 178.785 93.7125 178.721 94.0592C178.662 94.4059 178.553 94.7205 178.393 95.0032C178.238 95.2859 178.025 95.5179 177.753 95.6992C177.481 95.8752 177.134 95.9632 176.713 95.9632C176.291 95.9632 175.945 95.8752 175.673 95.6992C175.401 95.5179 175.185 95.2859 175.025 95.0032C174.87 94.7205 174.761 94.4059 174.697 94.0592C174.638 93.7125 174.609 93.3712 174.609 93.0352ZM175.809 93.0352C175.809 93.1845 175.814 93.3632 175.825 93.5712C175.841 93.7792 175.878 93.9792 175.937 94.1712C175.995 94.3632 176.083 94.5259 176.201 94.6592C176.323 94.7925 176.494 94.8592 176.713 94.8592C176.926 94.8592 177.094 94.7925 177.217 94.6592C177.339 94.5259 177.43 94.3632 177.489 94.1712C177.547 93.9792 177.582 93.7792 177.593 93.5712C177.609 93.3632 177.617 93.1845 177.617 93.0352C177.617 92.8859 177.609 92.7072 177.593 92.4992C177.582 92.2912 177.547 92.0912 177.489 91.8992C177.43 91.7072 177.339 91.5445 177.217 91.4112C177.094 91.2779 176.926 91.2112 176.713 91.2112C176.494 91.2112 176.323 91.2779 176.201 91.4112C176.083 91.5445 175.995 91.7072 175.937 91.8992C175.878 92.0912 175.841 92.2912 175.825 92.4992C175.814 92.7072 175.809 92.8859 175.809 93.0352ZM181.519 90.2032H182.551L185.015 95.8672H183.607L183.119 94.6672H180.919L180.447 95.8672H179.071L181.519 90.2032ZM181.999 91.8512L181.311 93.6112H182.695L181.999 91.8512ZM187.313 91.5472L186.177 92.5472L185.497 91.7632L187.345 90.2032H188.465V95.8672H187.313V91.5472ZM190.135 94.5952L192.335 92.6192C192.447 92.5179 192.559 92.4032 192.671 92.2752C192.783 92.1472 192.839 91.9979 192.839 91.8272C192.839 91.6352 192.77 91.4859 192.631 91.3792C192.492 91.2672 192.33 91.2112 192.143 91.2112C191.919 91.2112 191.743 91.2805 191.615 91.4192C191.492 91.5579 191.423 91.7285 191.407 91.9312L190.207 91.8432C190.223 91.5499 190.284 91.2965 190.391 91.0832C190.498 90.8645 190.639 90.6832 190.815 90.5392C190.991 90.3952 191.196 90.2885 191.431 90.2192C191.671 90.1445 191.93 90.1072 192.207 90.1072C192.463 90.1072 192.703 90.1445 192.927 90.2192C193.151 90.2885 193.346 90.3952 193.511 90.5392C193.676 90.6779 193.804 90.8539 193.895 91.0672C193.991 91.2805 194.039 91.5285 194.039 91.8112C194.039 91.9925 194.02 92.1579 193.983 92.3072C193.946 92.4512 193.892 92.5845 193.823 92.7072C193.759 92.8245 193.682 92.9339 193.591 93.0352C193.5 93.1365 193.402 93.2352 193.295 93.3312L191.575 94.8112H194.087V95.8672H190.135V94.5952ZM196.206 92.4352H196.598C196.71 92.4352 196.819 92.4272 196.926 92.4112C197.032 92.3952 197.128 92.3659 197.214 92.3232C197.304 92.2752 197.376 92.2112 197.43 92.1312C197.483 92.0459 197.51 91.9365 197.51 91.8032C197.51 91.6325 197.44 91.4912 197.302 91.3792C197.168 91.2672 197.003 91.2112 196.806 91.2112C196.619 91.2112 196.464 91.2619 196.342 91.3632C196.219 91.4645 196.139 91.5899 196.102 91.7392L194.782 91.4672C194.846 91.2219 194.942 91.0139 195.07 90.8432C195.198 90.6672 195.35 90.5259 195.526 90.4192C195.702 90.3125 195.896 90.2352 196.11 90.1872C196.328 90.1339 196.558 90.1072 196.798 90.1072C197.048 90.1072 197.288 90.1392 197.518 90.2032C197.752 90.2619 197.958 90.3579 198.134 90.4912C198.31 90.6192 198.448 90.7819 198.55 90.9792C198.656 91.1765 198.71 91.4112 198.71 91.6832C198.71 91.9979 198.627 92.2672 198.462 92.4912C198.296 92.7152 198.056 92.8592 197.742 92.9232V92.9472C197.912 92.9685 198.062 93.0192 198.19 93.0992C198.323 93.1792 198.435 93.2779 198.526 93.3952C198.616 93.5125 198.686 93.6459 198.734 93.7952C198.782 93.9445 198.806 94.1019 198.806 94.2672C198.806 94.5499 198.75 94.7979 198.638 95.0112C198.531 95.2245 198.384 95.4032 198.198 95.5472C198.016 95.6859 197.8 95.7899 197.55 95.8592C197.304 95.9285 197.043 95.9632 196.766 95.9632C196.259 95.9632 195.822 95.8459 195.454 95.6112C195.091 95.3765 194.851 95.0059 194.734 94.4992L195.998 94.2032C196.04 94.4059 196.126 94.5659 196.254 94.6832C196.387 94.8005 196.582 94.8592 196.838 94.8592C197.099 94.8592 197.291 94.7925 197.414 94.6592C197.542 94.5205 197.606 94.3445 197.606 94.1312C197.606 93.9712 197.571 93.8485 197.502 93.7632C197.438 93.6725 197.352 93.6059 197.246 93.5632C197.139 93.5205 197.019 93.4965 196.886 93.4912C196.752 93.4805 196.619 93.4752 196.486 93.4752H196.206V92.4352ZM201.876 94.7312H199.404V93.7232L201.716 90.2032H203.028V93.7232H203.756V94.7312H203.028V95.8672H201.876V94.7312ZM201.876 91.7712H201.86L200.604 93.7232H201.876V91.7712Z" fill="black"/>
<defs>
<clipPath id="clip0_37_14218">
<rect width="18" height="18" fill="white" transform="translate(14 28)"/>
</clipPath>
</defs>
</svg>
