<svg width="7" height="31" viewBox="0 0 7 31" fill="none" xmlns="http://www.w3.org/2000/svg">
<path d="M0.382812 27.3477C0.382812 26.4727 0.638021 25.7435 1.14844 25.1602C1.67708 24.5768 2.46094 24.2852 3.5 24.2852C4.53906 24.2852 5.32292 24.5768 5.85156 25.1602C6.39844 25.7435 6.67188 26.4727 6.67188 27.3477C6.67188 28.1862 6.39844 28.888 5.85156 29.4531C5.32292 30.0182 4.53906 30.3008 3.5 30.3008C2.46094 30.3008 1.67708 30.0182 1.14844 29.4531C0.638021 28.888 0.382812 28.1862 0.382812 27.3477ZM0.410156 3.20312C0.410156 2.32812 0.665365 1.59896 1.17578 1.01562C1.70443 0.432292 2.48828 0.140625 3.52734 0.140625C4.56641 0.140625 5.35026 0.432292 5.87891 1.01562C6.42578 1.59896 6.69922 2.32812 6.69922 3.20312C6.69922 4.04167 6.42578 4.74349 5.87891 5.30859C5.35026 5.8737 4.56641 6.15625 3.52734 6.15625C2.48828 6.15625 1.70443 5.8737 1.17578 5.30859C0.665365 4.74349 0.410156 4.04167 0.410156 3.20312Z" fill="#202124"/>
</svg>
