<svg width="17" height="16" viewBox="0 0 17 16" fill="none" xmlns="http://www.w3.org/2000/svg">
<path d="M7.86659 9.96659L6.63325 11.1999C6.37325 11.4599 5.95992 11.4599 5.69325 11.2066C5.61992 11.1333 5.54659 11.0666 5.47325 10.9933C4.78659 10.2999 4.16659 9.57325 3.61325 8.81325C3.06659 8.05325 2.62659 7.29325 2.30659 6.53992C1.99325 5.77992 1.83325 5.05325 1.83325 4.35992C1.83325 3.90659 1.91325 3.47325 2.07325 3.07325C2.23325 2.66659 2.48659 2.29325 2.83992 1.95992C3.26659 1.53992 3.73325 1.33325 4.22659 1.33325C4.41325 1.33325 4.59992 1.37325 4.76659 1.45325C4.93992 1.53325 5.09325 1.65325 5.21325 1.82659L6.75992 4.00659C6.87992 4.17325 6.96658 4.32659 7.02658 4.47325C7.08658 4.61325 7.11992 4.75325 7.11992 4.87992C7.11992 5.03992 7.07325 5.19992 6.97992 5.35325C6.89325 5.50659 6.76658 5.66659 6.60658 5.82659L6.09992 6.35325C6.02658 6.42659 5.99325 6.51325 5.99325 6.61992C5.99325 6.67325 5.99992 6.71992 6.01325 6.77325C6.03325 6.82659 6.05325 6.86659 6.06659 6.90659C6.18659 7.12659 6.39325 7.41325 6.68658 7.75992C6.98658 8.10659 7.30658 8.45992 7.65325 8.81325C7.71992 8.87992 7.79325 8.94659 7.85992 9.01325C8.12658 9.27325 8.13325 9.69992 7.86659 9.96659Z" fill="white"/>
<path d="M15.1466 12.2201C15.1466 12.4068 15.1132 12.6001 15.0466 12.7868C15.0266 12.8401 15.0066 12.8934 14.9799 12.9468C14.8666 13.1868 14.7199 13.4134 14.5266 13.6268C14.1999 13.9868 13.8399 14.2468 13.4332 14.4134C13.4266 14.4134 13.4199 14.4201 13.4132 14.4201C13.0199 14.5801 12.5932 14.6668 12.1332 14.6668C11.4532 14.6668 10.7266 14.5068 9.9599 14.1801C9.19324 13.8534 8.42657 13.4134 7.66657 12.8601C7.40657 12.6668 7.14657 12.4734 6.8999 12.2668L9.0799 10.0868C9.26657 10.2268 9.43324 10.3334 9.57324 10.4068C9.60657 10.4201 9.64657 10.4401 9.69324 10.4601C9.74657 10.4801 9.7999 10.4868 9.8599 10.4868C9.97324 10.4868 10.0599 10.4468 10.1332 10.3734L10.6399 9.87344C10.8066 9.70677 10.9666 9.58011 11.1199 9.50011C11.2732 9.40677 11.4266 9.36011 11.5932 9.36011C11.7199 9.36011 11.8532 9.38677 11.9999 9.44677C12.1466 9.50677 12.2999 9.59344 12.4666 9.70677L14.6732 11.2734C14.8466 11.3934 14.9666 11.5334 15.0399 11.7001C15.1066 11.8668 15.1466 12.0334 15.1466 12.2201Z" fill="white"/>
</svg>
